<svg width="11" height="14" viewBox="0 0 11 14" fill="none" xmlns="http://www.w3.org/2000/svg">
<path d="M10 13H6.90875C7.42803 12.5363 7.91774 12.0406 8.375 11.5156C10.0906 9.5425 11 7.4625 11 5.5C11 4.04131 10.4205 2.64236 9.38909 1.61091C8.35764 0.579463 6.95869 0 5.5 0C4.04131 0 2.64236 0.579463 1.61091 1.61091C0.579463 2.64236 0 4.04131 0 5.5C0 7.4625 0.906875 9.5425 2.625 11.5156C3.08226 12.0406 3.57197 12.5363 4.09125 13H1C0.867392 13 0.740215 13.0527 0.646447 13.1464C0.552679 13.2402 0.5 13.3674 0.5 13.5C0.5 13.6326 0.552679 13.7598 0.646447 13.8536C0.740215 13.9473 0.867392 14 1 14H10C10.1326 14 10.2598 13.9473 10.3536 13.8536C10.4473 13.7598 10.5 13.6326 10.5 13.5C10.5 13.3674 10.4473 13.2402 10.3536 13.1464C10.2598 13.0527 10.1326 13 10 13ZM5.5 3.5C5.89556 3.5 6.28224 3.6173 6.61114 3.83706C6.94004 4.05682 7.19638 4.36918 7.34776 4.73463C7.49913 5.10009 7.53874 5.50222 7.46157 5.89018C7.3844 6.27814 7.19392 6.63451 6.91421 6.91421C6.63451 7.19392 6.27814 7.3844 5.89018 7.46157C5.50222 7.53874 5.10009 7.49913 4.73463 7.34776C4.36918 7.19638 4.05682 6.94004 3.83706 6.61114C3.6173 6.28224 3.5 5.89556 3.5 5.5C3.5 4.96957 3.71071 4.46086 4.08579 4.08579C4.46086 3.71071 4.96957 3.5 5.5 3.5Z" fill="#2B3990"/>
</svg>
