<svg width="13" height="13" viewBox="0 0 13 13" fill="none" xmlns="http://www.w3.org/2000/svg">
<path d="M12.4925 9.44237C12.3811 10.2893 11.9652 11.0666 11.3224 11.6293C10.6797 12.1919 9.8542 12.5014 9.00001 12.4999C4.03751 12.4999 5.6554e-06 8.46237 5.6554e-06 3.49987C-0.00152558 2.64568 0.307935 1.82014 0.870589 1.17743C1.43324 0.534729 2.21061 0.118815 3.05751 0.00737353C3.27166 -0.0187759 3.48854 0.0250372 3.67575 0.132273C3.86296 0.239508 4.01047 0.404414 4.09626 0.602373L5.41626 3.54925V3.55675C5.48194 3.70828 5.50906 3.87372 5.49521 4.0383C5.48136 4.20287 5.42696 4.36145 5.33688 4.49987C5.32563 4.51675 5.31376 4.53237 5.30126 4.548L4.00001 6.0905C4.46813 7.04175 5.46313 8.028 6.42688 8.49737L7.94813 7.203C7.96307 7.19044 7.97872 7.17875 7.99501 7.168C8.13331 7.07575 8.29244 7.01944 8.45799 7.00416C8.62353 6.98888 8.79028 7.01512 8.94313 7.0805L8.95126 7.08425L11.8956 8.40362C12.0939 8.48911 12.2592 8.63649 12.3668 8.82372C12.4744 9.01096 12.5185 9.228 12.4925 9.44237Z" fill="#2B3990"/>
</svg>
