<svg width="16" height="16" viewBox="0 0 16 16" fill="none" xmlns="http://www.w3.org/2000/svg">
<path d="M14.5 8.00004V13C14.5 13.6631 14.2366 14.299 13.7678 14.7678C13.2989 15.2366 12.663 15.5 12 15.5H8.5C8.36739 15.5 8.24021 15.4474 8.14645 15.3536C8.05268 15.2598 8 15.1326 8 15C8 14.8674 8.05268 14.7403 8.14645 14.6465C8.24021 14.5527 8.36739 14.5 8.5 14.5H12C12.3978 14.5 12.7794 14.342 13.0607 14.0607C13.342 13.7794 13.5 13.3979 13.5 13H12C11.6022 13 11.2206 12.842 10.9393 12.5607C10.658 12.2794 10.5 11.8979 10.5 11.5V9.00004C10.5 8.60221 10.658 8.22068 10.9393 7.93938C11.2206 7.65807 11.6022 7.50004 12 7.50004H13.4781C13.3835 6.46062 12.9951 5.46959 12.3582 4.64269C11.7214 3.81579 10.8624 3.18717 9.88163 2.83024C8.90085 2.47332 7.83875 2.40283 6.8194 2.62702C5.80005 2.8512 4.86553 3.3608 4.125 4.09629C3.20416 5.00498 2.6362 6.21134 2.5225 7.50004H4C4.39782 7.50004 4.77936 7.65807 5.06066 7.93938C5.34196 8.22068 5.5 8.60221 5.5 9.00004V11.5C5.5 11.8979 5.34196 12.2794 5.06066 12.5607C4.77936 12.842 4.39782 13 4 13H3C2.60218 13 2.22064 12.842 1.93934 12.5607C1.65804 12.2794 1.5 11.8979 1.5 11.5V8.00004C1.5014 6.71247 1.88476 5.45427 2.60156 4.38468C3.31836 3.31509 4.33638 2.4822 5.52674 1.99144C6.71711 1.50068 8.02632 1.37411 9.28866 1.62774C10.551 1.88138 11.7097 2.50382 12.6181 3.41629C13.2179 4.01898 13.6929 4.73409 14.0158 5.52066C14.3387 6.30722 14.5033 7.14977 14.5 8.00004Z" fill="#2B3990"/>
</svg>
