<svg width="13" height="10" viewBox="0 0 13 10" fill="none" xmlns="http://www.w3.org/2000/svg">
<path d="M12.5 0H0.5C0.367392 0 0.240215 0.0526785 0.146447 0.146447C0.0526784 0.240215 0 0.367392 0 0.5V9C0 9.26522 0.105357 9.51957 0.292893 9.70711C0.48043 9.89464 0.734784 10 1 10H12C12.2652 10 12.5196 9.89464 12.7071 9.70711C12.8946 9.51957 13 9.26522 13 9V0.5C13 0.367392 12.9473 0.240215 12.8536 0.146447C12.7598 0.0526785 12.6326 0 12.5 0ZM12 9H1V1.63688L6.16187 6.36875C6.25412 6.45343 6.37478 6.50041 6.5 6.50041C6.62522 6.50041 6.74588 6.45343 6.83813 6.36875L12 1.63688V9Z" fill="#2B3990"/>
</svg>
